#N canvas 311 213 316 303 12;
#X obj 57 254 dac~;
#X obj 120 189 hsl 100 15 0 1 0 0 empty empty VOLUME 5 9 1 10 -260097
-1 -1 5300 0;
#X obj 197 55 vradio 15 1 0 3 empty empty empty 0 -8 0 10 -262144 -1
-1 2;
#X obj 197 110 s wForm;
#X obj 21 84 mtof;
#X obj 24 11 hsl 128 15 0 127 0 0 empty empty MIDI_NOTE 5 9 1 10 -262144
-1 -1 8100 0;
#X floatatom 21 31 5 0 0 0 - - -, f 5;
#X text 216 53 triangle;
#X text 216 69 sawtooth;
#X text 216 84 square;
#X obj 21 52 min 106;
#N canvas 1 77 1082 560 ARRAYS 0;
#X text 376 166 triangle;
#X text 383 267 sawtooth;
#X text 383 377 square;
#X obj 55 119 sel 0 1 2;
#X obj 70 28 r wForm;
#X floatatom 70 52 5 0 0 0 - - -, f 5;
#X obj 470 30 array define wformB 512;
#X obj 670 30 array define wformC 512;
#X msg 36 284 \; wformA sinesum 512 1 0.5 0.333333 0.25 0.2 0.166667
0.142857 0.125 0.111111 0.1 0.0909091 0.0833333 0.0769231 0.0714286
\; wformA normalize \;;
#X msg 36 394 \; wformA sinesum 512 1 0 0.333333 0 0.2 0 0.142857 0
0.111111 0 0.0909091 0 0.0769231 0 \; wformA normalize \;;
#X msg 496 394 \; wformB sinesum 512 1 0 0.333333 0 0.2 0 0.142857
0 0.111111 0 0.0909091 \; wformB normalize \;;
#X msg 496 284 \; wformB sinesum 512 1 0.5 0.333333 0.25 0.2 0.166667
0.142857 0.125 0.111111 0.1 0.0909091 \; wformB normalize \;;
#X msg 496 195 \; wformB sinesum 512 1 0 -0.111111 0 0.04 0 -0.0204082
0 0.0123457 0 -0.00826446 \; wformB normalize \;;
#X msg 936 195 \; wformC sinesum 512 1 0 -0.111111 0 0.04 \; wformC
normalize \;;
#X msg 936 284 \; wformC sinesum 512 1 0.5 0.333333 0.25 0.2 \; wformC
normalize \;;
#X msg 936 394 \; wformC sinesum 512 1 0 0.333333 0 0.2 \; wformC normalize
\;;
#X msg 36 195 \; wformA sinesum 512 1 0 -0.111111 0 0.04 0 -0.0204082
0 0.0123457 0 -0.00826446 0 0.00591716 0 \; wformA normalize \;;
#X obj 240 30 array define wformA 512;
#X connect 3 0 16 0;
#X connect 3 0 12 0;
#X connect 3 0 13 0;
#X connect 3 1 8 0;
#X connect 3 1 11 0;
#X connect 3 1 14 0;
#X connect 3 2 9 0;
#X connect 3 2 10 0;
#X connect 3 2 15 0;
#X connect 4 0 5 0;
#X connect 5 0 3 0;
#X restore 189 138 pd ARRAYS;
#N canvas 1 77 450 300 volume 0;
#X msg 91 95 \$1 5;
#X obj 91 119 line~;
#X floatatom 171 72 5 0 0 0 - - -, f 5;
#X obj 74 150 *~;
#X obj 59 43 inlet~;
#X obj 55 209 outlet~;
#X obj 189 43 inlet;
#X connect 0 0 1 0;
#X connect 1 0 3 1;
#X connect 2 0 0 0;
#X connect 3 0 5 0;
#X connect 4 0 3 0;
#X connect 6 0 2 0;
#X restore 57 210 pd volume;
#N canvas 1 77 526 512 OSCILS 0;
#X obj 96 235 phasor~;
#X msg 112 154 \$1 5;
#X obj 112 198 line~;
#X floatatom 112 43 7 0 0 0 freq - -, f 7;
#X obj 112 64 t f f;
#X floatatom 212 136 7 0 0 0 - - -, f 7;
#X obj 96 283 +~ 1;
#X obj 96 383 tabread4~ wformA;
#X obj 216 383 tabread4~ wformB;
#X obj 96 407 *~;
#X obj 216 407 *~;
#X floatatom 280 287 5 0 0 0 - - -, f 5;
#X msg 280 308 \$1 5;
#X obj 280 332 line~;
#X floatatom 330 287 5 0 0 0 - - -, f 5;
#X msg 330 308 \$1 5;
#X obj 330 332 line~;
#X obj 172 157 <= 10000;
#X obj 242 157 > 10000;
#X obj 212 112 * 14;
#X floatatom 292 116 7 0 0 0 - - -, f 7;
#X obj 346 407 *~;
#X obj 346 383 tabread4~ wformC;
#X floatatom 380 287 5 0 0 0 - - -, f 5;
#X msg 380 308 \$1 5;
#X obj 380 332 line~;
#X obj 330 147 <= 18000;
#X obj 330 231 +;
#X obj 330 171 t b f;
#X obj 330 255 == 2;
#X obj 292 92 * 11;
#X obj 380 255 > 18000;
#X floatatom 412 86 7 0 0 0 - - -, f 7;
#X obj 412 62 * 5;
#X obj 96 259 *~ 512;
#X obj 112 12 inlet;
#X obj 96 471 outlet~;
#X connect 0 0 34 0;
#X connect 1 0 2 0;
#X connect 2 0 0 0;
#X connect 3 0 4 0;
#X connect 4 0 1 0;
#X connect 4 1 19 0;
#X connect 4 1 30 0;
#X connect 4 1 33 0;
#X connect 5 0 17 0;
#X connect 5 0 18 0;
#X connect 6 0 7 0;
#X connect 6 0 8 0;
#X connect 6 0 22 0;
#X connect 7 0 9 0;
#X connect 8 0 10 0;
#X connect 9 0 36 0;
#X connect 10 0 36 0;
#X connect 11 0 12 0;
#X connect 12 0 13 0;
#X connect 13 0 9 1;
#X connect 14 0 15 0;
#X connect 15 0 16 0;
#X connect 16 0 10 1;
#X connect 17 0 11 0;
#X connect 18 0 27 0;
#X connect 19 0 5 0;
#X connect 20 0 26 0;
#X connect 20 0 31 0;
#X connect 21 0 36 0;
#X connect 22 0 21 0;
#X connect 23 0 24 0;
#X connect 24 0 25 0;
#X connect 25 0 21 1;
#X connect 26 0 28 0;
#X connect 27 0 29 0;
#X connect 28 0 27 0;
#X connect 28 1 27 1;
#X connect 29 0 14 0;
#X connect 30 0 20 0;
#X connect 31 0 23 0;
#X connect 33 0 32 0;
#X connect 34 0 6 0;
#X connect 35 0 3 0;
#X restore 56 156 pd OSCILS;
#X floatatom 21 108 7 0 0 1 freq_Hz - -, f 7;
#X obj 197 5 loadbang;
#X msg 197 29 0;
#X connect 1 0 12 1;
#X connect 2 0 3 0;
#X connect 4 0 14 0;
#X connect 5 0 6 0;
#X connect 6 0 10 0;
#X connect 10 0 4 0;
#X connect 12 0 0 0;
#X connect 12 0 0 1;
#X connect 13 0 12 0;
#X connect 14 0 13 0;
#X connect 15 0 16 0;
#X connect 16 0 2 0;
