#N canvas 328 1235 871 496 12;
#X obj 101 28 inlet;
#X obj 101 313 list trim;
#X obj 101 291 list prepend val \$1;
#X obj 190 53 route \$1;
#X obj 101 336 s __to_gPreset_\$2;
#X obj 190 28 r __from_gPreset_\$2;
#X obj 403 34 loadbang;
#X obj 456 129 pdcontrol;
#X msg 456 98 args;
#X obj 506 184 list split 2;
#X text 555 42 patch args \; \; 1 GUI name \; 2 nPreset unique id \;
3 range min \; 4 range max \;;
#X obj 101 114 route float range;
#X msg 159 151 range \$1 \$2;
#N canvas 1 84 450 300 INIT_NAME 0;
#X obj 132 65 inlet;
#X obj 132 90 \$0;
#X msg 132 115 label slider_\$1;
#X obj 132 140 outlet;
#X connect 0 0 1 0;
#X connect 1 0 2 0;
#X connect 2 0 3 0;
#X restore 485 388 pd INIT_NAME;
#X obj 506 249 unpack s;
#X obj 485 423 spigot 1;
#X msg 538 354 0;
#N canvas 633 1453 408 350 CHECK_RANGE 0;
#X obj 64 12 inlet;
#X obj 64 64 t l l;
#X obj 103 107 unpack;
#X obj 103 132 != 0;
#X obj 142 132 != 0;
#X obj 64 217 spigot;
#X obj 103 157 +;
#X obj 64 292 outlet;
#X msg 64 242 range \$1 \$2;
#X obj 103 182 >= 1;
#X text 186 66 only returns when input \; is != from a list 0 \, 0
\;;
#X connect 0 0 1 0;
#X connect 1 0 5 0;
#X connect 1 1 2 0;
#X connect 2 0 3 0;
#X connect 2 1 4 0;
#X connect 3 0 6 0;
#X connect 4 0 6 1;
#X connect 5 0 8 0;
#X connect 6 0 9 0;
#X connect 8 0 7 0;
#X connect 9 0 5 1;
#X restore 546 213 pd CHECK_RANGE;
#X obj 506 291 t s b;
#X msg 506 316 label \$1;
#X obj 456 156 route symbol;
#X obj 101 216 nbx 9 16 -100 100 0 0 empty empty panpot 0 -8 0 10 -262144
-1 -1 -35 256;
#X obj 133 436 outlet;
#X obj 101 246 t f f;
#X obj 403 66 t b b b;
#X msg 249 151 range -1e+37 1e+37;
#X connect 0 0 11 0;
#X connect 1 0 4 0;
#X connect 2 0 1 0;
#X connect 3 0 21 0;
#X connect 5 0 3 0;
#X connect 6 0 24 0;
#X connect 7 0 20 0;
#X connect 8 0 7 0;
#X connect 9 0 14 0;
#X connect 9 1 17 0;
#X connect 11 1 12 0;
#X connect 12 0 21 0;
#X connect 13 0 15 0;
#X connect 14 0 18 0;
#X connect 15 0 21 0;
#X connect 16 0 15 1;
#X connect 17 0 21 0;
#X connect 18 0 19 0;
#X connect 18 1 16 0;
#X connect 19 0 21 0;
#X connect 20 0 18 0;
#X connect 20 1 9 0;
#X connect 21 0 23 0;
#X connect 23 0 2 0;
#X connect 23 1 22 0;
#X connect 24 0 13 0;
#X connect 24 1 8 0;
#X connect 24 2 25 0;
#X connect 25 0 21 0;
#X coords 0 -1 1 1 91 33 2 100 200;
