#N canvas 673 1266 851 263 12;
#X obj 443 141 text define \$0_DATA;
#N canvas 682 1246 634 555 GUI_TO_PRESET 0;
#X obj 81 361 t a b;
#X obj 81 456 text set \$0_DATA;
#X msg 117 394 1e+15;
#X obj 153 252 text search \$0_DATA;
#X obj 81 166 t a a;
#X obj 117 425 spigot;
#X obj 153 279 t f f f;
#X obj 153 334 spigot;
#X obj 192 304 != -1;
#X obj 174 394 == -1;
#X obj 153 220 symbol;
#X obj 81 408 list;
#X obj 153 195 unpack s;
#X obj 81 79 route val;
#X obj 408 102 r \$0_from_g_preset_nr;
#X obj 390 132 f;
#X obj 390 249 s \$0_to_text;
#X obj 390 167 makefilename preset_%d;
#X obj 390 66 r \$0_from_g_save;
#X obj 81 44 r __to_gPreset_\$1;
#X msg 390 204 write ./presets/\$1.txt;
#X connect 0 0 11 0;
#X connect 0 1 2 0;
#X connect 2 0 5 0;
#X connect 3 0 6 0;
#X connect 4 0 0 0;
#X connect 4 1 12 0;
#X connect 5 0 1 1;
#X connect 6 0 7 0;
#X connect 6 1 9 0;
#X connect 6 2 8 0;
#X connect 7 0 1 1;
#X connect 8 0 7 1;
#X connect 9 0 5 1;
#X connect 10 0 3 0;
#X connect 11 0 1 0;
#X connect 12 0 10 0;
#X connect 13 0 4 0;
#X connect 14 0 15 1;
#X connect 15 0 17 0;
#X connect 17 0 20 0;
#X connect 18 0 15 0;
#X connect 19 0 13 0;
#X connect 20 0 16 0;
#X restore 443 176 pd GUI_TO_PRESET;
#N canvas 876 1232 545 552 PRESET_TO_GUI 0;
#X obj 65 224 text size \$0_DATA;
#X obj 65 419 text get \$0_DATA;
#X obj 65 256 moses 1;
#X obj 65 316 until;
#X obj 65 341 f 0;
#X obj 65 366 t f f;
#X obj 115 366 + 1;
#X msg 117 330 0;
#X obj 65 286 t f b;
#X obj 65 446 list trim;
#X obj 302 78 r \$0_from_g_preset_nr;
#X obj 284 108 f;
#X obj 284 42 r \$0_from_g_load;
#X obj 284 133 t b f;
#X obj 316 225 s \$0_to_text;
#X obj 316 163 makefilename preset_%d;
#X obj 65 178 del 150;
#X obj 65 474 s __from_gPreset_\$1;
#X msg 316 200 read ./presets/\$1.txt;
#X connect 0 0 2 0;
#X connect 1 0 9 0;
#X connect 2 1 8 0;
#X connect 3 0 4 0;
#X connect 4 0 5 0;
#X connect 5 0 1 0;
#X connect 5 1 6 0;
#X connect 6 0 4 1;
#X connect 7 0 4 1;
#X connect 8 0 3 0;
#X connect 8 1 7 0;
#X connect 9 0 17 0;
#X connect 10 0 11 1;
#X connect 11 0 13 0;
#X connect 12 0 11 0;
#X connect 13 0 16 0;
#X connect 13 1 15 0;
#X connect 15 0 18 0;
#X connect 16 0 0 0;
#X connect 18 0 14 0;
#X restore 443 209 pd PRESET_TO_GUI;
#X obj 29 100 bng 15 250 50 0 \$0_from_g_save \$0_to_g_save save 17
7 0 10 -4034 -1 -1;
#X floatatom 29 156 5 0 0 2 preset_nr #0_to_g_preset_nr #0_from_g_preset_nr
;
#X obj 29 120 bng 15 250 50 0 \$0_from_g_load \$0_to_g_load load 17
7 0 10 -260097 -1 -1;
#X obj 443 53 r \$0_to_text;
#X obj 175 22 inlet;
#X obj 258 107 s \$0_to_g_preset_nr;
#X obj 99 120 bng 15 250 50 0 \$0_from_g_open \$0_to_g_open open 17
7 0 10 -191407 -1 -1;
#X obj 453 83 r \$0_from_g_open;
#X msg 453 108 click;
#X obj 26 76 cnv 15 118 18 empty empty id:\$1 1 9 0 12 -260097 -66577
0;
#X obj 226 73 t b f;
#X obj 175 47 route save load;
#X obj 175 73 t b f;
#X connect 6 0 0 0;
#X connect 7 0 14 0;
#X connect 10 0 11 0;
#X connect 11 0 0 0;
#X connect 13 0 5 0;
#X connect 13 1 8 0;
#X connect 14 0 15 0;
#X connect 14 1 13 0;
#X connect 15 0 3 0;
#X connect 15 1 8 0;
#X coords 0 -1 1 1 120 105 2 25 75;
