#N canvas 337 1218 685 382 12;
#X obj 101 201 tgl 15 0 empty empty \$1 17 7 0 10 -262144 -1 -1 0 1
;
#X obj 101 28 inlet;
#X obj 101 283 list trim;
#X obj 101 261 list prepend val \$1;
#X obj 190 53 route \$1;
#X text 415 42 patch args \; \; 1 GUI name \; 2 nPreset unique id \;
;
#X obj 101 306 s __to_gPreset_\$2;
#X obj 190 28 r __from_gPreset_\$2;
#X obj 101 231 t f f;
#X obj 133 347 outlet;
#X connect 0 0 8 0;
#X connect 1 0 0 0;
#X connect 2 0 6 0;
#X connect 3 0 2 0;
#X connect 4 0 0 0;
#X connect 7 0 4 0;
#X connect 8 0 3 0;
#X connect 8 1 9 0;
#X coords 0 -1 1 1 100 17 2 100 200;
