#N canvas 331 1235 868 566 12;
#X obj 116 330 cnv 15 58 15 \$0_from_g_cnv \$0_to_g_cnv 119.000 1 7
0 12 -260097 -66577 0;
#X obj 101 214 vsl 15 128 0 127 0 0 empty empty send_1 0 -8 0 10 -262144
-1 -1 11900 0;
#X obj 101 39 inlet;
#X obj 124 424 list trim;
#X obj 124 402 list prepend val \$1;
#X obj 190 64 route \$1;
#X obj 124 447 s __to_gPreset_\$2;
#X obj 190 39 r __from_gPreset_\$2;
#X obj 403 45 loadbang;
#X obj 456 140 pdcontrol;
#X msg 456 109 args;
#X obj 486 215 list split 2;
#X text 670 33 patch args \; \; 1 GUI name \; 2 nPreset unique id \;
3 range min \; 4 range max \;;
#X obj 101 125 route float range;
#X msg 159 162 range \$1 \$2;
#N canvas 471 1428 450 300 INIT_NAME 0;
#X obj 132 65 inlet;
#X obj 132 90 \$0;
#X msg 132 115 label slider_\$1;
#X obj 132 140 outlet;
#X connect 0 0 1 0;
#X connect 1 0 2 0;
#X connect 2 0 3 0;
#X restore 465 409 pd INIT_NAME;
#X obj 486 280 unpack s;
#X obj 465 444 spigot 1;
#X msg 518 375 0;
#N canvas 616 1367 408 428 CHECK_RANGE 0;
#X obj 64 12 inlet;
#X obj 64 64 t l l;
#X obj 103 107 unpack;
#X obj 103 132 != 0;
#X obj 142 132 != 0;
#X obj 64 247 spigot;
#X obj 103 157 +;
#X obj 64 352 outlet;
#X msg 64 302 range \$1 \$2;
#X obj 103 182 >= 1;
#X connect 0 0 1 0;
#X connect 1 0 5 0;
#X connect 1 1 2 0;
#X connect 2 0 3 0;
#X connect 2 1 4 0;
#X connect 3 0 6 0;
#X connect 4 0 6 1;
#X connect 5 0 8 0;
#X connect 6 0 9 0;
#X connect 8 0 7 0;
#X connect 9 0 5 1;
#X restore 526 244 pd CHECK_RANGE;
#N canvas 457 1362 450 300 TO_CNV 0;
#X obj 100 131 s \$0_to_g_cnv;
#X msg 100 101 label \$1;
#X obj 100 76 makefilename %.3f;
#X obj 100 46 inlet;
#X obj 274 32 loadbang;
#X msg 274 57 0;
#X connect 1 0 0 0;
#X connect 2 0 1 0;
#X connect 3 0 2 0;
#X connect 4 0 5 0;
#X connect 5 0 2 0;
#X restore 101 483 pd TO_CNV;
#X obj 486 312 t s b;
#X msg 486 345 label \$1;
#X obj 456 172 route symbol;
#X obj 101 357 t f f f;
#X obj 147 527 outlet;
#X obj 403 77 t b b b;
#X msg 245 195 range 0 127;
#X connect 1 0 24 0;
#X connect 2 0 13 0;
#X connect 3 0 6 0;
#X connect 4 0 3 0;
#X connect 5 0 1 0;
#X connect 7 0 5 0;
#X connect 8 0 26 0;
#X connect 9 0 23 0;
#X connect 10 0 9 0;
#X connect 11 0 16 0;
#X connect 11 1 19 0;
#X connect 13 0 1 0;
#X connect 13 1 14 0;
#X connect 14 0 1 0;
#X connect 15 0 17 0;
#X connect 16 0 21 0;
#X connect 17 0 1 0;
#X connect 18 0 17 1;
#X connect 19 0 1 0;
#X connect 21 0 22 0;
#X connect 21 1 18 0;
#X connect 22 0 1 0;
#X connect 23 0 21 0;
#X connect 23 1 11 0;
#X connect 24 0 20 0;
#X connect 24 1 4 0;
#X connect 24 2 25 0;
#X connect 26 0 15 0;
#X connect 26 1 10 0;
#X connect 26 2 27 0;
#X connect 27 0 1 0;
#X coords 0 -1 1 1 75 146 2 100 200;
