#N canvas 1 77 634 424 12;
#X obj 167 163 nArray;
#X msg 419 58 4 4 4;
#X floatatom 167 187 5 0 0 0 value - -, f 5;
#X floatatom 117 50 5 0 0 2 x - -, f 5;
#X floatatom 157 50 5 0 0 2 y - -, f 5;
#X floatatom 197 50 5 0 0 2 z - -, f 5;
#X floatatom 51 48 5 0 0 2 value - -, f 5;
#X obj 41 99 pack 0 0 0 0;
#X floatatom 266 25 5 0 0 2 x - -, f 5;
#X floatatom 306 25 5 0 0 2 y - -, f 5;
#X floatatom 346 25 5 0 0 2 z - -, f 5;
#X obj 266 86 pack 0 0 0;
#X obj 306 46 t b f;
#X obj 346 46 t b f;
#X text 290 217 nArray is a multidimensional array \; the n number
of dimension is automatically set \; in accord with the length of the
list sent \; to the 3rd inlet of the object \; INLETS \; 1 write values
\; 2 read values \; 3 array size \; 4 bang to clear the array \;;
#X obj 258 157 bng 15 250 50 0 empty empty clear 17 7 0 10 -262144
-1 -1;
#X text 415 38 set the array size;
#X connect 0 0 2 0;
#X connect 1 0 0 2;
#X connect 3 0 7 1;
#X connect 4 0 7 2;
#X connect 5 0 7 3;
#X connect 6 0 7 0;
#X connect 7 0 0 0;
#X connect 8 0 11 0;
#X connect 9 0 12 0;
#X connect 10 0 13 0;
#X connect 11 0 0 1;
#X connect 12 0 11 0;
#X connect 12 1 11 1;
#X connect 13 0 11 0;
#X connect 13 1 11 2;
#X connect 15 0 0 3;
