#N canvas 1 77 1351 687 12;
#N canvas 0 50 450 250 (subpatch) 0;
#X array nArray_\$0 64 float 3;
#A 0 0.789 0 0 0 0 0 0 0 0 0 0 0 0 0 0 0 0 0 0 0 0 0 0 0 0 0 0 0 0
0 0 0 0 0 0 0 0 0 0 0 0 0 0 0 0 0 0 0 0 0 0 0 0 0 0 0 0 0 0 0 0 0 0
0;
#X coords 0 1 64 -1 400 240 1 0 0;
#X restore 73 421 graph;
#X obj 858 163 list split 1;
#X obj 918 197 list;
#X floatatom 858 271 5 0 0 0 - - -, f 5;
#X obj 858 247 * 1;
#X msg 844 133 1;
#X obj 812 107 t a b;
#X msg 858 292 resize \$1;
#X obj 858 316 s nArray_\$0;
#X obj 377 337 tabwrite nArray_\$0;
#X msg 975 141 xticks 0 1 \$1;
#X msg 975 112 \$1;
#X obj 532 148 list split 1;
#X obj 593 172 list;
#X obj 378 171 textfile;
#X msg 871 352 add \$1;
#X msg 378 144 clear;
#X obj 858 187 t b f;
#X floatatom 378 195 5 0 0 0 - - -, f 5;
#X floatatom 500 206 5 0 0 0 - - -, f 5;
#X obj 532 172 t b f b;
#X obj 500 227 *;
#X obj 500 251 +;
#X floatatom 529 251 5 0 0 0 - - -, f 5;
#X obj 492 59 list split 2;
#X obj 442 92 list split 1;
#X obj 500 286 +;
#X obj 482 126 t b f;
#X floatatom 500 310 5 0 0 0 - - -, f 5;
#X msg 555 212 0;
#X obj 532 115 t a b b;
#X obj 681 605 tabread nArray_\$0;
#X obj 713 423 list split 1;
#X obj 774 447 list;
#X obj 559 446 textfile;
#X msg 559 419 clear;
#X floatatom 559 470 5 0 0 0 - - -, f 5;
#X floatatom 681 481 5 0 0 0 - - -, f 5;
#X obj 713 447 t b f b;
#X obj 681 502 *;
#X obj 681 526 +;
#X floatatom 710 526 5 0 0 0 - - -, f 5;
#X obj 681 561 +;
#X obj 663 401 t b f;
#X floatatom 681 585 5 0 0 0 - - -, f 5;
#X msg 736 487 0;
#X obj 713 390 t a b b;
#X obj 663 357 list split 1;
#X floatatom 681 629 5 0 0 0 - - -, f 5;
#X msg 360 113 rewind;
#X msg 577 396 rewind;
#X obj 492 31 inlet;
#X obj 663 31 inlet;
#X obj 812 31 inlet;
#X obj 681 650 outlet;
#X text 735 650 value out;
#X text 472 4 write values in;
#X text 632 4 read values in;
#X text 802 4 n_dimensions_size;
#X text 14 20 all the data sent to this abstraction must be \; a list
of value \; i.e. \; n_dimensions_size = [8 2 4( - 3D array \; write_values
= [0.5 0 1 2( \; read_values = [0 1 2( \;;
#X obj 1066 14 loadbang;
#X msg 1066 78 const 0;
#X obj 1066 102 s nArray_\$0;
#X msg 1016 38 5 2 2;
#X text 1068 38 initialize the array;
#X obj 1232 31 inlet;
#X text 1222 4 clear the array;
#X obj 1232 55 b;
#X connect 1 0 17 0;
#X connect 1 1 2 1;
#X connect 2 0 1 0;
#X connect 3 0 4 1;
#X connect 3 0 7 0;
#X connect 3 0 15 0;
#X connect 4 0 3 0;
#X connect 5 0 4 1;
#X connect 6 0 1 0;
#X connect 6 1 5 0;
#X connect 6 1 16 0;
#X connect 6 1 35 0;
#X connect 7 0 8 0;
#X connect 10 0 8 0;
#X connect 11 0 10 0;
#X connect 12 0 20 0;
#X connect 12 1 13 1;
#X connect 13 0 12 0;
#X connect 14 0 18 0;
#X connect 15 0 14 0;
#X connect 15 0 34 0;
#X connect 16 0 14 0;
#X connect 17 0 2 0;
#X connect 17 1 4 0;
#X connect 18 0 21 1;
#X connect 19 0 21 0;
#X connect 20 0 13 0;
#X connect 20 1 19 0;
#X connect 20 2 14 0;
#X connect 21 0 22 0;
#X connect 22 0 23 0;
#X connect 22 0 26 0;
#X connect 23 0 22 1;
#X connect 24 0 25 0;
#X connect 24 1 30 0;
#X connect 25 0 9 0;
#X connect 25 1 27 0;
#X connect 26 0 28 0;
#X connect 27 0 26 0;
#X connect 27 1 26 1;
#X connect 28 0 9 1;
#X connect 29 0 22 1;
#X connect 30 0 12 0;
#X connect 30 1 29 0;
#X connect 30 2 49 0;
#X connect 31 0 48 0;
#X connect 32 0 38 0;
#X connect 32 1 33 1;
#X connect 33 0 32 0;
#X connect 34 0 36 0;
#X connect 35 0 34 0;
#X connect 36 0 39 1;
#X connect 37 0 39 0;
#X connect 38 0 33 0;
#X connect 38 1 37 0;
#X connect 38 2 34 0;
#X connect 39 0 40 0;
#X connect 40 0 41 0;
#X connect 40 0 42 0;
#X connect 41 0 40 1;
#X connect 42 0 44 0;
#X connect 43 0 42 0;
#X connect 43 1 42 1;
#X connect 44 0 31 0;
#X connect 45 0 40 1;
#X connect 46 0 32 0;
#X connect 46 1 45 0;
#X connect 46 2 50 0;
#X connect 47 0 43 0;
#X connect 47 1 46 0;
#X connect 48 0 54 0;
#X connect 49 0 14 0;
#X connect 50 0 34 0;
#X connect 51 0 24 0;
#X connect 52 0 47 0;
#X connect 53 0 6 0;
#X connect 53 0 11 0;
#X connect 60 0 61 0;
#X connect 60 0 63 0;
#X connect 61 0 62 0;
#X connect 63 0 6 0;
#X connect 63 0 11 0;
#X connect 65 0 67 0;
#X connect 67 0 61 0;
