#N canvas 0 23 450 371 10;
#X obj 131 101 list fromsymbol;
#X obj 158 227 makefilename %p;
#X obj 131 14 inlet;
#X obj 137 320 outlet;
#X obj 158 273 t a a;
#X obj 158 250 list prepend;
#X obj 137 295 list;
#X obj 240 154 list length;
#X obj 131 124 t l l;
#X obj 44 227 cyclone/counter;
#X obj 131 177 t b f;
#X obj 44 250 sel -1;
#X obj 240 177 - 1;
#X obj 131 77 t s b b;
#X obj 131 37 symbol;
#X obj 131 154 iterator;
#X connect 0 0 8 0;
#X connect 1 0 5 0;
#X connect 2 0 14 0;
#X connect 4 0 6 1;
#X connect 4 1 5 1;
#X connect 5 0 4 0;
#X connect 6 0 3 0;
#X connect 7 0 12 0;
#X connect 8 0 15 0;
#X connect 8 1 7 0;
#X connect 9 0 11 0;
#X connect 10 0 9 0;
#X connect 10 1 1 0;
#X connect 11 0 6 0;
#X connect 12 0 11 1;
#X connect 13 0 0 0;
#X connect 13 1 9 2;
#X connect 13 2 5 1;
#X connect 14 0 13 0;
#X connect 15 0 10 0;
