#N canvas 565 57 596 450 10;
#X floatatom 159 90 5 0 0 0 - - -;
#X obj 159 139 t f f;
#X obj 248 46 r \$0_loopback;
#X floatatom 248 67 5 0 0 0 - - -;
#X obj 159 161 div 2;
#X floatatom 159 182 5 0 0 0 - - -;
#X obj 269 161 % 2;
#X floatatom 269 182 5 0 0 0 - - -;
#X obj 159 263 f;
#X obj 186 233 sel 1;
#X obj 159 334 s \$0_loopback;
#X obj 189 263 f;
#X obj 159 202 t f f f;
#X obj 159 110 t f b;
#X obj 269 223 t l l;
#X obj 269 202 list append;
#X obj 269 256 list;
#X obj 189 284 t b f;
#X obj 159 24 inlet;
#X obj 269 394 outlet;
#X text 258 417 return a list;
#X obj 248 87 moses 1;
#X obj 159 45 sel 0 1;
#X msg 159 66 0;
#X msg 189 66 1;
#X connect 0 0 13 0;
#X connect 1 0 4 0;
#X connect 1 1 6 0;
#X connect 2 0 3 0;
#X connect 3 0 21 0;
#X connect 4 0 5 0;
#X connect 5 0 12 0;
#X connect 6 0 7 0;
#X connect 7 0 15 0;
#X connect 8 0 10 0;
#X connect 9 0 11 0;
#X connect 9 1 8 0;
#X connect 11 0 17 0;
#X connect 12 0 8 1;
#X connect 12 1 9 0;
#X connect 12 2 11 1;
#X connect 13 0 1 0;
#X connect 13 1 15 1;
#X connect 14 0 16 1;
#X connect 14 1 15 1;
#X connect 15 0 14 0;
#X connect 16 0 19 0;
#X connect 17 0 16 0;
#X connect 17 1 6 0;
#X connect 18 0 22 0;
#X connect 21 1 1 0;
#X connect 22 0 23 0;
#X connect 22 1 24 0;
#X connect 22 2 0 0;
#X connect 23 0 19 0;
#X connect 24 0 19 0;
