#N canvas 452 52 710 705 10;
#X obj 74 13 inlet;
#X obj 98 653 outlet;
#X obj 74 193 list fromsymbol;
#X obj 113 337 f 0;
#X obj 74 169 t a b;
#X msg 181 276 0;
#X obj 113 361 t f f;
#X obj 154 392 + 1;
#X floatatom 113 395 5 0 0 0 - - -;
#X obj 98 513 *;
#X msg 232 360 10;
#X msg 252 390 11;
#X msg 282 360 12;
#X msg 302 390 13;
#X msg 332 360 14;
#X msg 352 390 15;
#X obj 232 336 sel 97 98 99 100 101 102 48 49 50 51 52 53 54 55 56
57;
#X msg 382 360 0;
#X msg 402 390 1;
#X msg 432 360 2;
#X msg 452 390 3;
#X msg 482 360 4;
#X msg 502 390 5;
#X msg 532 360 6;
#X msg 552 390 7;
#X msg 582 360 8;
#X msg 602 390 9;
#X floatatom 232 470 5 0 0 0 - - -;
#X obj 98 537 +;
#X obj 98 561 t f f;
#X floatatom 98 585 7 0 0 0 - - -;
#X obj 74 237 list split 1;
#X obj 124 277 list;
#X msg 113 445 16;
#X obj 113 469 pow;
#X obj 74 277 t b f b;
#X obj 113 421 t b f f;
#X obj 164 460 f;
#X obj 164 481 sel -1;
#X obj 74 214 t a a;
#X obj 225 268 list length;
#X obj 225 289 - 1;
#X obj 98 615 f;
#X obj 74 144 symbol;
#X obj 404 276 sel 65 66 67 68 69 70;
#X obj 74 55 iterator;
#X obj 74 94 route symbol float;
#X connect 0 0 45 0;
#X connect 2 0 39 0;
#X connect 3 0 6 0;
#X connect 4 0 2 0;
#X connect 4 1 5 0;
#X connect 5 0 3 1;
#X connect 5 0 28 1;
#X connect 6 0 8 0;
#X connect 6 1 7 0;
#X connect 7 0 3 1;
#X connect 8 0 36 0;
#X connect 9 0 28 0;
#X connect 10 0 27 0;
#X connect 11 0 27 0;
#X connect 12 0 27 0;
#X connect 13 0 27 0;
#X connect 14 0 27 0;
#X connect 15 0 27 0;
#X connect 16 0 10 0;
#X connect 16 1 11 0;
#X connect 16 2 12 0;
#X connect 16 3 13 0;
#X connect 16 4 14 0;
#X connect 16 5 15 0;
#X connect 16 6 17 0;
#X connect 16 7 18 0;
#X connect 16 8 19 0;
#X connect 16 9 20 0;
#X connect 16 10 21 0;
#X connect 16 11 22 0;
#X connect 16 12 23 0;
#X connect 16 13 24 0;
#X connect 16 14 25 0;
#X connect 16 15 26 0;
#X connect 16 16 44 0;
#X connect 17 0 27 0;
#X connect 18 0 27 0;
#X connect 19 0 27 0;
#X connect 20 0 27 0;
#X connect 21 0 27 0;
#X connect 22 0 27 0;
#X connect 23 0 27 0;
#X connect 24 0 27 0;
#X connect 25 0 27 0;
#X connect 26 0 27 0;
#X connect 27 0 9 0;
#X connect 28 0 29 0;
#X connect 29 0 30 0;
#X connect 29 1 28 1;
#X connect 30 0 42 1;
#X connect 31 0 35 0;
#X connect 31 1 32 0;
#X connect 32 0 31 0;
#X connect 33 0 34 0;
#X connect 34 0 9 1;
#X connect 35 0 37 0;
#X connect 35 1 16 0;
#X connect 35 2 3 0;
#X connect 36 0 33 0;
#X connect 36 1 34 1;
#X connect 36 2 37 1;
#X connect 37 0 38 0;
#X connect 38 0 42 0;
#X connect 39 0 31 0;
#X connect 39 1 40 0;
#X connect 40 0 41 0;
#X connect 41 0 38 1;
#X connect 42 0 1 0;
#X connect 43 0 4 0;
#X connect 44 0 10 0;
#X connect 44 1 11 0;
#X connect 44 2 12 0;
#X connect 44 3 13 0;
#X connect 44 4 14 0;
#X connect 44 5 15 0;
#X connect 45 0 46 0;
#X connect 46 0 43 0;
#X connect 46 1 1 0;
#X connect 46 2 43 0;
