#N canvas 0 23 450 300 10;
#X obj 146 32 inlet;
#X obj 146 108 list split 1;
#X obj 172 158 list store;
#X obj 146 129 t b l;
#X obj 148 193 list trim;
#X obj 148 214 outlet;
#X connect 0 0 1 0;
#X connect 1 0 3 0;
#X connect 1 1 2 1;
#X connect 2 0 1 0;
#X connect 3 0 2 0;
#X connect 3 1 4 0;
#X connect 4 0 5 0;
