#N canvas 197 307 820 572 10;
#X symbolatom 30 44 10 0 0 0 - - -;
#X obj 30 64 ascii_to_hex;
#X obj 30 85 print A2H;
#X floatatom 122 45 5 0 0 0 - - -;
#X obj 122 65 dec_to_bin;
#X obj 122 86 print D2B;
#X obj 213 65 hex_to_float;
#X obj 213 86 print H2F;
#X msg 391 44 23 45 67 test 0xBF;
#X obj 391 65 iterator;
#X obj 391 86 print ITER;
#X msg 213 44 0xF0 24 34 0x1a 0x2C 0xF7;
#X obj 31 239 print_2;
#X symbolatom 31 207 15 0 0 2 symbol - -;
#X floatatom 30 142 5 0 0 2 float - -;
#X obj 30 162 print_2;
#X obj 30 332 print_2;
#X obj 30 309 list;
#X msg 30 278 the size of the object goes in accord with the length
of the list/symbol;
#X connect 0 0 1 0;
#X connect 1 0 2 0;
#X connect 3 0 4 0;
#X connect 4 0 5 0;
#X connect 6 0 7 0;
#X connect 8 0 9 0;
#X connect 9 0 10 0;
#X connect 11 0 6 0;
#X connect 13 0 12 0;
#X connect 14 0 15 0;
#X connect 17 0 16 0;
#X connect 18 0 17 0;
