#N canvas 1 77 582 382 12;
#X obj 115 28 inlet;
#X obj 178 28 inlet;
#X obj 283 29 inlet;
#X obj 115 130 spigot;
#X obj 115 198 +;
#X obj 178 162 * 256;
#X obj 115 236 outlet;
#X obj 283 66 sel \$1;
#X msg 283 94 1;
#X msg 324 94 0;
#X text 354 174 it reads a message just when \; receives the "arg"
number \; at the third intlet \;;
#X obj 178 136 % 4;
#X text 423 335 ArduinoScaler v0.1 \;;
#X connect 0 0 3 0;
#X connect 1 0 11 0;
#X connect 2 0 7 0;
#X connect 3 0 4 0;
#X connect 4 0 6 0;
#X connect 5 0 4 1;
#X connect 7 0 8 0;
#X connect 7 1 9 0;
#X connect 8 0 3 1;
#X connect 9 0 3 1;
#X connect 11 0 5 0;
