#N canvas 1 95 991 634 12;
#X msg 341 250 close;
#X obj 270 354 unpack 0 0 0;
#X msg 220 251 48;
#X obj 284 92 symbol;
#X obj 284 152 t b b;
#X msg 270 250 open \$0;
#X obj 284 63 inlet;
#X obj 284 121 sel start stop;
#X msg 379 154 \$1;
#X obj 112 507 outlet;
#X obj 244 507 outlet;
#X obj 381 506 outlet;
#X obj 513 509 outlet;
#X obj 643 510 outlet;
#X obj 775 509 outlet;
#X obj 381 473 ArduinoScaler 2;
#X obj 775 476 ArduinoScaler 5;
#X obj 112 470 ArduinoScaler 0;
#X obj 244 473 ArduinoScaler 1;
#X obj 513 476 ArduinoScaler 3;
#X obj 643 476 ArduinoScaler 4;
#X text 657 362 "ArduinoScaler" abstraction needs the \; Arduino analog
input number as argument \;;
#X text 501 33 sends a byte message to Arduino \; to turn on the serial
communication \; see the Arduino sketch \;;
#X obj 270 295 comport 0 9600;
#X obj 284 181 del 2500;
#X text 825 572 ArduinoSerial v0.1;
#X obj 270 324 cyclone/zl group 3;
#X connect 0 0 23 0;
#X connect 1 0 15 0;
#X connect 1 0 16 0;
#X connect 1 0 17 0;
#X connect 1 0 18 0;
#X connect 1 0 19 0;
#X connect 1 0 20 0;
#X connect 1 1 15 1;
#X connect 1 1 17 1;
#X connect 1 1 18 1;
#X connect 1 1 19 1;
#X connect 1 1 20 1;
#X connect 1 1 16 1;
#X connect 1 2 15 2;
#X connect 1 2 16 2;
#X connect 1 2 17 2;
#X connect 1 2 18 2;
#X connect 1 2 19 2;
#X connect 1 2 20 2;
#X connect 2 0 23 0;
#X connect 3 0 7 0;
#X connect 4 0 24 0;
#X connect 4 1 5 0;
#X connect 5 0 23 0;
#X connect 6 0 3 0;
#X connect 7 0 4 0;
#X connect 7 1 0 0;
#X connect 7 2 8 0;
#X connect 8 0 23 0;
#X connect 15 0 11 0;
#X connect 16 0 14 0;
#X connect 17 0 9 0;
#X connect 18 0 10 0;
#X connect 19 0 12 0;
#X connect 20 0 13 0;
#X connect 23 0 26 0;
#X connect 24 0 2 0;
#X connect 26 0 1 0;
